<?xml version="1.0" standalone="no"?>
<!DOCTYPE svg PUBLIC "-//W3C//DTD SVG 20010904//EN"
 "http://www.w3.org/TR/2001/REC-SVG-20010904/DTD/svg10.dtd">
<svg version="1.0" xmlns="http://www.w3.org/2000/svg"
 width="1024.000000pt" height="1024.000000pt" viewBox="0 0 1024.000000 1024.000000"
 preserveAspectRatio="xMidYMid meet">

<g transform="translate(0.000000,1024.000000) scale(0.100000,-0.100000)"
fill="#c0c0c0" stroke="none">
<path d="M4580 8440 c-732 -45 -1497 -195 -2169 -425 -132 -45 -377 -139 -398
-153 -21 -14 -36 -415 -30 -812 8 -499 42 -855 123 -1273 14 -71 23 -134 21
-140 -2 -7 -120 -38 -263 -69 l-259 -56 393 -1 c370 -1 393 0 388 17 -3 9 -23
107 -45 217 -108 540 -149 1044 -136 1645 4 173 10 319 15 324 4 4 79 33 167
63 682 236 1323 373 2023 434 203 17 849 23 1080 10 737 -43 1381 -166 2055
-394 325 -110 334 -114 339 -151 13 -78 16 -565 7 -798 -20 -472 -77 -909
-165 -1270 l-23 -98 396 1 396 1 -155 34 c-353 78 -382 85 -376 100 11 30 57
279 80 444 60 415 82 810 71 1295 -4 182 -10 361 -13 400 l-7 69 -155 62
c-684 270 -1429 438 -2260 509 -218 19 -883 28 -1100 15z"/>
<path d="M2470 7585 c7 -9 10 -27 7 -43 -5 -27 -4 -28 24 -24 16 2 36 -1 44
-8 18 -15 19 -7 3 20 -10 16 -10 24 0 40 17 28 15 32 -9 19 -16 -8 -28 -8 -46
0 -32 15 -38 14 -23 -4z"/>
<path d="M4755 7583 c-187 -4 -540 -25 -666 -38 -154 -16 -210 -38 -276 -109
-52 -55 -197 -266 -283 -411 -70 -120 -94 -155 -102 -155 -5 0 -8 21 -8 46 0
37 -5 51 -30 76 -31 30 -31 30 -124 26 -80 -3 -103 -8 -151 -33 -31 -17 -64
-42 -73 -58 -15 -25 -15 -30 -2 -54 22 -38 80 -64 171 -76 43 -6 79 -14 79
-19 0 -4 -4 -8 -10 -8 -20 0 -163 -146 -216 -221 -30 -43 -93 -124 -141 -181
-47 -57 -98 -121 -112 -142 l-26 -39 -2 -256 -1 -256 31 207 c18 113 35 209
39 213 4 4 13 -8 21 -27 19 -45 71 -104 118 -134 71 -44 125 -51 504 -64 198
-7 370 -16 383 -21 32 -12 38 -36 19 -87 -10 -31 -11 -40 -3 -31 25 27 182
205 239 271 36 41 71 71 90 77 157 48 1450 48 1641 -1 22 -5 51 -22 65 -37 30
-31 209 -235 260 -296 28 -33 32 -36 26 -15 -4 14 -13 38 -21 54 -30 62 5 72
286 80 481 15 529 19 592 48 62 29 127 90 152 143 33 69 33 68 75 -215 l18
-125 8 59 c4 32 6 136 3 230 -6 204 -7 207 -131 353 -46 54 -115 141 -154 193
-68 93 -150 178 -205 214 -16 10 -28 22 -28 26 0 4 34 10 75 13 121 9 195 57
175 113 -32 84 -261 144 -337 88 -23 -18 -29 -30 -33 -78 -3 -31 -9 -57 -13
-57 -13 0 -38 36 -102 146 -69 118 -181 288 -240 365 -107 138 -156 157 -450
179 -323 25 -747 34 -1130 24z m900 -98 c44 -3 170 -10 280 -16 110 -6 216
-15 235 -20 30 -7 49 -26 112 -112 142 -193 288 -442 273 -466 -4 -8 -448 -11
-1494 -11 -1589 0 -1532 -2 -1517 47 11 35 172 290 264 419 l87 122 65 6 c142
13 396 28 615 36 222 8 916 5 1080 -5z m-2348 -1169 c115 -36 271 -83 348
-106 272 -80 305 -91 305 -98 0 -15 -103 -123 -131 -137 -23 -12 -86 -15 -347
-15 -415 0 -433 5 -471 124 -11 33 -25 99 -31 146 l-11 85 36 33 c23 21 45 32
65 32 16 0 123 -29 237 -64z m3791 35 c36 -33 37 -43 21 -156 -19 -141 -57
-206 -130 -225 -21 -6 -184 -11 -371 -11 -382 -2 -365 -5 -441 84 -51 60 -56
73 -29 81 9 3 96 28 192 55 96 28 281 84 410 125 129 41 253 75 275 75 31 1
48 -6 73 -28z"/>
<path d="M2896 7513 c-20 -61 -37 -78 -109 -107 l-55 -22 43 -12 c59 -16 100
-53 121 -112 l18 -50 11 45 c7 25 20 55 31 66 23 26 90 58 124 59 20 1 17 4
-15 14 -94 30 -117 51 -140 131 l-12 39 -17 -51z"/>
<path d="M2551 7254 c-16 -60 -47 -93 -115 -125 -41 -19 -54 -28 -38 -29 33 0
97 -35 121 -66 12 -15 26 -45 33 -68 l11 -41 7 30 c19 80 53 116 133 140 35
11 39 14 22 20 -99 36 -127 61 -150 137 l-13 43 -11 -41z"/>
<path d="M2811 6833 c-1 -12 -11 -28 -23 -34 l-22 -12 22 -8 c14 -5 22 -17 23
-31 l0 -23 9 23 c5 12 20 26 32 31 l23 8 -22 7 c-12 4 -26 19 -32 34 -8 24 -9
25 -10 5z"/>
<path d="M4655 6040 c-233 -11 -423 -28 -444 -40 -10 -5 -43 -38 -72 -72 l-54
-63 66 56 c76 64 47 58 404 80 365 22 1269 -5 1335 -41 11 -6 48 -33 82 -61
l63 -51 -80 79 c-78 79 -81 80 -140 87 -238 25 -880 40 -1160 26z"/>
<path d="M1695 4835 l0 -305 278 0 277 0 0 40 0 40 -225 0 -225 0 0 265 0 265
-52 0 -53 0 0 -305z"/>
<path d="M2620 4835 l0 -305 275 0 275 0 0 40 0 40 -225 0 -225 0 0 265 0 265
-50 0 -50 0 0 -305z"/>
<path d="M4017 5132 c-27 -2 -47 -7 -45 -11 2 -4 71 -139 153 -299 l150 -292
58 2 58 3 154 295 c85 162 154 298 155 303 0 4 -23 7 -50 7 l-51 0 -125 -252
c-69 -139 -130 -254 -137 -256 -7 -1 -65 105 -137 249 -69 138 -127 251 -130
252 -3 1 -27 1 -53 -1z"/>
<path d="M5530 4836 l0 -306 213 0 c267 0 329 14 406 92 140 140 90 408 -91
489 -50 23 -66 24 -290 27 l-238 4 0 -306z m495 188 c25 -13 51 -39 70 -69 27
-43 30 -57 30 -125 0 -66 -4 -82 -27 -117 -17 -26 -44 -49 -75 -64 -43 -21
-64 -24 -220 -27 l-172 -4 -3 212 c-2 116 -1 214 2 217 3 2 84 3 180 1 154 -3
180 -5 215 -24z"/>
<path d="M6390 4833 l0 -303 315 0 315 0 0 40 0 40 -265 0 -265 0 0 95 0 95
185 0 185 0 0 40 0 40 -185 0 -185 0 0 85 0 85 253 2 252 3 3 38 3 37 -263 1
c-145 0 -282 1 -306 2 l-42 2 0 -302z"/>
<path d="M7170 4835 l0 -305 50 0 50 0 0 115 0 115 148 0 147 -1 93 -114 94
-115 50 0 c39 0 48 3 41 13 -102 131 -164 222 -156 224 45 15 102 54 120 81
67 102 19 250 -92 281 -24 7 -140 11 -292 11 l-253 0 0 -305z m543 195 c55
-43 42 -130 -23 -162 -30 -15 -64 -18 -227 -18 l-193 0 0 100 0 100 209 0
c195 0 210 -1 234 -20z"/>
<path d="M8015 4838 l0 -303 54 -3 53 -3 -3 305 -4 306 -50 0 -50 0 0 -302z"/>
<path d="M928 4830 l3 -300 309 0 310 0 0 40 0 40 -260 0 -260 0 0 95 0 95
185 0 185 0 0 40 0 40 -185 0 -185 0 0 85 0 85 250 0 250 0 0 40 0 40 -302 0
-303 0 3 -300z"/>
<path d="M3404 4830 l-150 -300 51 0 51 0 35 73 36 72 197 -3 196 -3 35 -69
35 -70 51 0 50 0 -151 300 -152 300 -66 0 -67 0 -151 -300z m298 75 c37 -72
67 -133 68 -137 0 -5 -67 -8 -150 -8 -82 0 -150 2 -150 5 0 8 43 93 97 193 25
46 50 81 57 80 6 -2 41 -62 78 -133z"/>
<path d="M4832 4830 l-150 -300 48 0 49 0 38 73 38 72 193 3 193 2 35 -75 36
-75 54 0 c30 0 54 2 54 4 0 3 -68 138 -152 300 l-151 296 -67 0 -67 0 -151
-300z m295 75 c37 -74 65 -136 62 -139 -3 -3 -68 -2 -146 1 l-141 6 66 134
c37 73 72 133 79 133 7 0 43 -61 80 -135z"/>
<path d="M8230 5093 l0 -38 137 0 138 0 3 -262 2 -263 50 0 50 0 0 266 0 266
140 -4 140 -3 0 38 0 37 -330 0 -330 0 0 -37z"/>
<path d="M9129 5109 c-119 -42 -189 -138 -189 -261 0 -188 130 -308 333 -308
222 0 361 102 374 274 10 124 -72 250 -192 295 -76 29 -244 28 -326 0z m293
-80 c80 -41 127 -118 128 -205 0 -135 -155 -232 -326 -204 -98 16 -162 78
-184 175 -28 126 41 227 173 255 61 13 163 2 209 -21z"/>
<path d="M1505 4039 c63 -10 134 -21 760 -115 209 -31 386 -62 393 -67 8 -6
49 -63 93 -128 416 -614 971 -1138 1583 -1497 160 -93 406 -214 572 -282 l144
-58 98 38 c609 237 1149 600 1639 1103 212 218 386 433 585 722 l76 110 419
64 c230 35 501 76 603 91 l185 28 -700 1 -700 0 -52 -83 c-247 -389 -671 -835
-1073 -1127 -313 -228 -638 -404 -986 -535 l-90 -34 -115 44 c-673 256 -1306
722 -1792 1321 -36 44 -110 145 -166 225 -55 80 -106 153 -113 164 -13 17 -44
18 -718 22 -489 2 -687 0 -645 -7z"/>
</g>
</svg>
